<svg width="{566}" height="{357}" viewBox="0 0 566 357" fill="none" xmlns="http://www.w3.org/2000/svg">
  <g clippath="url(#clip0_3_91)">
    <path d="M516.203 270C544.432 193.446 535.893 107.964 499.484 42.313L118.367 99.5532L483.599 16.9888C329.669 -191.223 30.0665 -53.1188 58.9467 209.764L516.203 270Z" fill="#E6E6E6" />
    <path d="M449.497 205.193H49.0564V330.119H449.497V205.193Z" fill="#FFCC00" />
    <path d="M160.735 189.958C164.328 192.753 165.642 193.655 166.407 193.541C203.477 204.356 170.98 217.03 152.968 195.516L160.735 189.958Z" fill="#FFB8B8" />
    <path d="M38.412 304.22V329.612L56.6596 328.596L51.5911 302.189L38.412 304.22Z" fill="#FFB8B8" />
    <path d="M139.789 304.22V329.612L121.541 328.596L126.61 302.189L139.789 304.22Z" fill="#FFB8B8" />
    <path d="M84.0317 173.199L111.404 172.183C174.547 238.504 150.667 223.377 148.913 314.377L115.459 304.22L122.555 241.249C122.559 241.246 124.427 239.998 122.874 239.97C113.161 243.314 106.075 201.91 85.0454 206.716C61.1153 205.569 57.2196 241.134 47.5358 241.249L54.6322 304.22L21.1776 314.377C17.4319 214.378 -0.925903 236.968 58.6873 172.183L84.0317 173.199Z" fill="#2F2E41" />
    <path d="M43.4807 321.486C43.4807 321.486 39.4256 313.361 34.3567 317.424C29.2878 321.486 17.1225 333.674 17.1225 333.674C17.1225 333.674 -12.2769 346.878 5.97102 355.003C24.219 363.129 39.4256 343.831 39.4256 343.831C56.8065 340.2 66.8319 337.875 57.6145 318.881C52.3814 321.149 44.9758 323.776 43.4807 321.486Z" fill="#2F2E41" />
    <path d="M134.72 321.486C134.72 321.486 138.775 313.361 143.844 317.424C148.913 321.486 161.079 333.674 161.079 333.674C161.079 333.674 190.478 346.878 172.23 355.003C153.982 363.129 138.775 343.831 138.775 343.831C121.395 340.2 111.369 337.875 120.587 318.881C125.82 321.149 133.225 323.776 134.72 321.486Z" fill="#2F2E41" />
    <path d="M111.404 58.4289C109.896 83.7129 75.4529 81.4869 74.9078 58.4287C76.4155 33.1449 110.858 35.3709 111.404 58.4289Z" fill="#FFB8B8" />
    <path d="M85.0454 71.6326C93.9141 98.4869 72.9756 83.8665 102.28 105.15L113.431 82.8049C113.431 82.8049 105.321 79.7579 106.335 68.5856L85.0454 71.6326Z" fill="#FFB8B8" />
    <path d="M139.789 86.8675L109.569 79.9568C110.419 98.2127 90.973 94.5384 87.5798 85.3553L58.6873 102.103C70.8144 147.353 67.7409 149.22 51.5909 178.277C45.4274 183.916 54.645 187.148 62.6695 184.063C68.79 180.278 71.8982 176.915 78.4564 177.771C109.445 184.235 135.243 185.761 139.326 183.235C140.787 181.14 139.284 87.2312 139.789 86.8675Z" fill="#575A89" />
    <path d="M131.679 88.8989C132.693 88.8989 137.915 86.439 137.915 86.439C153.108 86.1824 163.304 188.571 164.12 191.481L153.982 198.591L137.762 156.948L131.679 88.8989Z" fill="#575A89" />
    <path d="M60.7148 207.732C61.2332 211.565 62.1153 254.611 77.5068 234.503C79.5261 219.833 72.6607 215.454 70.8526 205.7L60.7148 207.732Z" fill="#FFB8B8" />
    <path d="M64.7699 102.103L61.6638 100.377C53.3361 100.103 55.9607 122.188 52.4374 138.361C49.5591 157.203 50.3786 177.979 53.7556 205.755C54.0509 215.948 72.2732 209.527 74.9077 208.747C74.9077 208.747 68.825 167.105 71.8664 159.995C74.9077 152.886 64.7699 102.103 64.7699 102.103Z" fill="#575A89" />
    <path d="M110.606 40.706C107.791 36.1259 103.384 32.7507 98.234 31.2303L94.4514 34.262L95.9221 30.7259C94.6853 30.5369 93.4337 30.4644 92.1835 30.5094L88.7801 34.8934L90.1887 30.6596C75.5848 32.2306 66.9444 49.0265 74.5261 60.7816C75.6956 57.1808 77.1151 53.8021 78.2846 50.2013C79.2038 50.3268 80.1353 50.3314 81.0557 50.2148L82.4786 46.8885L82.876 50.0741C87.2863 49.6891 93.8277 48.844 98.0087 48.0697L97.6022 45.6259L100.035 47.6567C101.316 47.3612 102.076 47.0933 102.013 46.8885C105.123 51.9108 108.204 55.1187 111.313 60.1409C112.494 53.0569 114.577 47.1683 110.606 40.706Z" fill="#2F2E41" />
    <path d="M425.53 220.263H337.093V262.292H425.53V220.263Z" fill="white" />
    <path d="M408.806 229.066H353.816V234.105H408.806V229.066Z" fill="#E6E6E6" />
    <path d="M408.806 238.757H353.816V243.797H408.806V238.757Z" fill="#E6E6E6" />
    <path d="M408.806 248.449H353.816V253.488H408.806V248.449Z" fill="#E6E6E6" />
    <path d="M260.078 230.246L257.202 225.255L254.325 220.263L251.449 225.255L248.572 230.246H251.663V244.701H256.987V230.246H260.078Z" fill="white" />
    <path d="M455 333.099C468.082 333.099 478.687 322.474 478.687 309.368C478.687 296.262 468.082 285.637 455 285.637C441.918 285.637 431.313 296.262 431.313 309.368C431.313 322.474 441.918 333.099 455 333.099Z" fill="#3F3D56" />
    <path d="M459.306 319.885C465.104 319.885 469.804 315.177 469.804 309.368C469.804 303.56 465.104 298.851 459.306 298.851C453.509 298.851 448.809 303.56 448.809 309.368C448.809 315.177 453.509 319.885 459.306 319.885Z" fill="#E6E6E6" />
    <path d="M440.061 325.953L491.742 347.526L490.126 352.65L460.383 349.279L410.049 326.897L438.042 330.133L440.061 325.953Z" fill="#3F3D56" />
    <path d="M485.744 346.554L550.019 135.316L565.672 107.467L565.727 107.198C565.777 106.952 566.926 101.131 564.1 96.9159C563.387 95.868 562.467 94.9784 561.396 94.3026C560.325 93.6268 559.127 93.1792 557.875 92.9877C549.237 91.365 529.91 90.5654 529.092 90.5321L528.938 90.5258L528.785 90.5467C528.257 90.6189 515.905 92.4277 513.113 103.233L499.676 127.735L499.623 127.909L438.791 328.274L442.139 329.294L502.918 129.104L516.4 104.52L516.455 104.294C518.429 96.1623 527.868 94.26 529.124 94.0423C531.098 94.1267 549.262 94.9365 557.23 96.4334C558.022 96.5415 558.782 96.8129 559.463 97.2305C560.144 97.6481 560.731 98.2028 561.187 98.8595C562.93 101.444 562.494 105.249 562.34 106.25L546.783 133.928L546.728 134.111L482.396 345.532L485.744 346.554Z" fill="#3F3D56" />
    <path d="M495.141 147.993L494.519 151.443L540.941 159.843L541.563 156.393L495.141 147.993Z" fill="#3F3D56" />
    <path d="M486.472 176.684L485.772 180.118L531.862 189.543L532.562 186.108L486.472 176.684Z" fill="#3F3D56" />
    <path d="M471.034 227.995L470.072 231.366L515.07 244.266L516.033 240.895L471.034 227.995Z" fill="#3F3D56" />
    <path d="M501.466 327.45L502.742 324.185L459.065 307.051L456.92 283.785L497.686 299.04L510.893 318.185L513.772 316.192L499.94 296.141L452.924 278.547L455.779 309.527L501.466 327.45Z" fill="#3F3D56" />
    <path d="M516.639 355.751C529.721 355.751 540.326 345.127 540.326 332.02C540.326 318.914 529.721 308.289 516.639 308.289C503.557 308.289 492.952 318.914 492.952 332.02C492.952 345.127 503.557 355.751 516.639 355.751Z" fill="#3F3D56" />
    <path d="M522.83 373.616C528.628 373.616 533.328 368.908 533.328 363.099C533.328 357.291 528.628 352.582 522.83 352.582C517.033 352.582 512.333 357.291 512.333 363.099C512.333 368.908 517.033 373.616 522.83 373.616Z" fill="#E6E6E6" />
  </g>
  <defs>
    <clipPath id="clip0_3_91">
      <rect width="{566}" height="{357}" fill="white" />
    </clipPath>
  </defs>
</svg>
