<svg width="658" height="371" viewBox="0 0 658 371" fill="none" xmlns="http://www.w3.org/2000/svg">
<g clip-path="url(#clip0_3_122)">
<path d="M606.275 370.273C615.901 370.273 623.705 368.972 623.705 367.366C623.705 365.761 615.901 364.459 606.275 364.459C596.648 364.459 588.844 365.761 588.844 367.366C588.844 368.972 596.648 370.273 606.275 370.273Z" fill="#F2F2F2"/>
<path d="M626.61 89.7522H625.158V120.275H626.61V89.7522Z" fill="#F2F2F2"/>
<path d="M610.632 70.1302H601.917V371H610.632V70.1302Z" fill="#F2F2F2"/>
<path d="M646.174 93.7493H566.375C565.5 93.7493 564.635 93.5631 563.837 93.2029C563.039 92.8427 562.326 92.3169 561.747 91.6602C561.168 91.0036 560.735 90.2312 560.477 89.3942C560.218 88.5573 560.141 87.675 560.25 86.8059L570.417 5.41115C570.606 3.918 571.332 2.54485 572.46 1.54881C573.587 0.552767 575.039 0.00212906 576.543 0H636.007C637.511 0.00212885 638.962 0.552767 640.09 1.54881C641.217 2.54485 641.944 3.918 642.132 5.41115L652.3 86.8059C652.409 87.675 652.331 88.5573 652.073 89.3942C651.815 90.2312 651.382 91.0036 650.802 91.6602C650.223 92.3169 649.511 92.8427 648.713 93.2029C647.915 93.5631 647.05 93.7493 646.174 93.7493V93.7493Z" fill="#F2F2F2"/>
<path d="M625.884 125.362C628.692 125.362 630.968 123.085 630.968 120.275C630.968 117.466 628.692 115.188 625.884 115.188C623.076 115.188 620.8 117.466 620.8 120.275C620.8 123.085 623.076 125.362 625.884 125.362Z" fill="#F2F2F2"/>
<path d="M91.1905 290.233C87.5213 302.971 76.8078 311.887 65.6321 319.461C64.0717 320.519 62.5108 321.552 60.9494 322.561C60.9388 322.566 60.9279 322.576 60.9172 322.58C60.8421 322.629 60.7668 322.677 60.6968 322.726C60.3746 322.933 60.0522 323.141 59.7326 323.347L59.9082 323.426C59.9082 323.426 60.0805 323.518 59.8919 323.441C59.8358 323.417 59.777 323.396 59.721 323.372C53.2287 320.752 46.621 317.939 41.6456 313.031C36.4844 307.933 33.4682 299.939 36.2629 293.243C36.6303 292.366 37.0943 291.532 37.6463 290.758C37.873 290.434 38.1172 290.123 38.3714 289.818C39.913 287.935 41.9279 286.497 44.209 285.652C46.49 284.807 48.9549 284.585 51.3501 285.009C53.7453 285.433 55.9844 286.488 57.8372 288.065C59.69 289.642 61.0896 291.684 61.8921 293.982C62.7131 286.333 56.4096 279.925 50.3434 275.197C44.2745 270.472 37.3786 265.326 36.2053 257.719C35.5501 253.486 37.0209 249.385 39.7003 246.092C39.7832 245.992 39.8661 245.892 39.9515 245.795C43.213 241.96 47.8003 239.497 52.7972 238.899C62.103 237.931 71.1422 242.86 77.9027 249.334C88.7837 259.751 95.3617 275.751 91.1905 290.233Z" fill="#F2F2F2"/>
<path d="M38.2201 322.309H78.429C78.8701 322.309 79.3061 322.402 79.7081 322.584C80.1102 322.765 80.4691 323.03 80.761 323.361C81.0529 323.692 81.2711 324.081 81.4012 324.503C81.5313 324.925 81.5703 325.369 81.5156 325.807L76.3923 366.82C76.2972 367.572 75.9314 368.264 75.3632 368.766C74.7951 369.268 74.0636 369.545 73.3057 369.547H43.3434C42.5856 369.545 41.8541 369.268 41.2859 368.766C40.7178 368.264 40.3519 367.572 40.2569 366.82L35.1336 325.807C35.0789 325.369 35.1178 324.925 35.2479 324.503C35.378 324.081 35.5963 323.692 35.8882 323.361C36.1801 323.03 36.5389 322.765 36.941 322.584C37.343 322.402 37.7791 322.309 38.2201 322.309V322.309Z" fill="#F2F2F2"/>
<path d="M169.321 369.862C172.1 369.862 174.353 367.607 174.353 364.826C174.353 362.045 172.1 359.791 169.321 359.791C166.542 359.791 164.289 362.045 164.289 364.826C164.289 367.607 166.542 369.862 169.321 369.862Z" fill="#CCCCCC"/>
<path d="M487.183 369.862C489.962 369.862 492.215 367.607 492.215 364.826C492.215 362.045 489.962 359.791 487.183 359.791C484.404 359.791 482.151 362.045 482.151 364.826C482.151 367.607 484.404 369.862 487.183 369.862Z" fill="#CCCCCC"/>
<path d="M261.576 294.751H182.74C179.071 294.747 175.554 293.287 172.959 290.691C170.365 288.095 168.906 284.575 168.902 280.904V227.193C168.906 223.522 170.365 220.002 172.959 217.406C175.554 214.81 179.071 213.35 182.74 213.346H261.576C265.245 213.35 268.763 214.81 271.357 217.406C273.951 220.002 275.411 223.522 275.415 227.193V280.904C275.411 284.575 273.951 288.095 271.357 290.691C268.763 293.287 265.245 294.747 261.576 294.751V294.751Z" fill="#E6E6E6"/>
<path d="M367.67 295.17H288.834C285.165 295.166 281.647 293.706 279.053 291.11C276.459 288.514 274.999 284.994 274.995 281.323V227.613C274.999 223.941 276.459 220.422 279.053 217.826C281.647 215.23 285.165 213.77 288.834 213.765H367.67C371.339 213.77 374.856 215.23 377.451 217.826C380.045 220.422 381.504 223.941 381.508 227.613V281.323C381.504 284.994 380.045 288.514 377.451 291.11C374.856 293.706 371.339 295.166 367.67 295.17V295.17Z" fill="#E6E6E6"/>
<path d="M473.764 295.59H394.927C391.259 295.586 387.741 294.126 385.147 291.53C382.553 288.934 381.093 285.414 381.089 281.743V228.032C381.093 224.361 382.553 220.841 385.147 218.245C387.741 215.649 391.259 214.189 394.927 214.185H473.764C477.433 214.189 480.95 215.649 483.545 218.245C486.139 220.841 487.598 224.361 487.602 228.032V281.743C487.598 285.414 486.139 288.934 483.544 291.53C480.95 294.126 477.433 295.586 473.764 295.59V295.59Z" fill="#E6E6E6"/>
<path d="M503.957 291.814H156.741V364.407H503.957V291.814Z" fill="#E6E6E6"/>
<path d="M169.321 364.826H154.225C146.594 364.826 140.386 357.773 140.386 349.104V273.351H169.321V364.826Z" fill="#E6E6E6"/>
<path d="M502.279 364.826H487.183V261.601H516.117V347.085C516.117 356.868 509.91 364.826 502.279 364.826Z" fill="#E6E6E6"/>
<path d="M275.834 306.92H169.321V284.261C204.825 263.881 240.33 263.881 275.834 284.261V306.92Z" fill="#CCCCCC"/>
<path d="M381.928 307.339H275.415V284.68C310.919 264.301 346.424 264.301 381.928 284.68V307.339Z" fill="#CCCCCC"/>
<path d="M488.022 307.759H381.508V285.1C417.013 264.72 452.517 264.72 488.022 285.1V307.759Z" fill="#CCCCCC"/>
<path d="M148.773 292.653C162.437 292.653 173.514 281.569 173.514 267.896C173.514 254.223 162.437 243.138 148.773 243.138C135.109 243.138 124.032 254.223 124.032 267.896C124.032 281.569 135.109 292.653 148.773 292.653Z" fill="#CCCCCC"/>
<path d="M511.085 291.814C524.75 291.814 535.827 280.729 535.827 267.056C535.827 253.383 524.75 242.299 511.085 242.299C497.421 242.299 486.344 253.383 486.344 267.056C486.344 280.729 497.421 291.814 511.085 291.814Z" fill="#CCCCCC"/>
<path d="M435.371 220.606L427.728 221.159C427.536 221.173 427.346 221.11 427.201 220.984C427.055 220.858 426.965 220.679 426.952 220.487C426.938 220.294 427.001 220.104 427.127 219.959C427.253 219.813 427.431 219.723 427.623 219.709L435.267 219.156C435.362 219.149 435.458 219.161 435.548 219.191C435.639 219.22 435.723 219.268 435.795 219.331C435.867 219.393 435.927 219.469 435.97 219.554C436.012 219.64 436.038 219.733 436.045 219.828C436.052 219.924 436.04 220.019 436.01 220.11C435.98 220.201 435.932 220.285 435.869 220.357C435.807 220.429 435.731 220.488 435.645 220.531C435.56 220.573 435.467 220.599 435.371 220.606Z" fill="#3F3D56"/>
<path d="M435.634 224.23L427.99 224.783C427.895 224.79 427.799 224.779 427.709 224.749C427.618 224.719 427.534 224.671 427.462 224.609C427.39 224.546 427.33 224.47 427.287 224.385C427.245 224.299 427.219 224.206 427.212 224.111C427.205 224.016 427.217 223.92 427.247 223.829C427.277 223.738 427.325 223.655 427.388 223.582C427.45 223.51 427.526 223.451 427.612 223.408C427.697 223.366 427.79 223.34 427.886 223.333L435.529 222.78C435.721 222.766 435.911 222.829 436.056 222.955C436.202 223.081 436.292 223.26 436.305 223.452C436.319 223.645 436.256 223.835 436.13 223.98C436.004 224.126 435.826 224.216 435.634 224.23V224.23Z" fill="#3F3D56"/>
<path d="M435.896 227.854L428.252 228.407C428.061 228.421 427.871 228.358 427.726 228.232C427.581 228.106 427.491 227.927 427.477 227.735C427.463 227.543 427.526 227.353 427.652 227.208C427.778 227.062 427.956 226.972 428.148 226.958L435.791 226.404C435.983 226.39 436.173 226.453 436.318 226.58C436.464 226.706 436.554 226.885 436.568 227.077C436.581 227.269 436.518 227.459 436.392 227.605C436.266 227.75 436.088 227.84 435.896 227.854V227.854Z" fill="#3F3D56"/>
<path d="M657.274 371H0.726269C0.533651 371 0.348921 370.923 0.212719 370.787C0.0765169 370.651 0 370.466 0 370.273C0 370.081 0.0765169 369.896 0.212719 369.759C0.348921 369.623 0.533651 369.547 0.726269 369.547H657.274C657.466 369.547 657.651 369.623 657.787 369.759C657.924 369.896 658 370.081 658 370.273C658 370.466 657.924 370.651 657.787 370.787C657.651 370.923 657.466 371 657.274 371Z" fill="#3F3D56"/>
<path d="M312.862 43.241C314.868 43.241 316.493 41.6141 316.493 39.6073C316.493 37.6004 314.868 35.9736 312.862 35.9736C310.856 35.9736 309.231 37.6004 309.231 39.6073C309.231 41.6141 310.856 43.241 312.862 43.241Z" fill="#F2F2F2"/>
</g>
<defs>
<clipPath id="clip0_3_122">
<rect width="658" height="371" fill="white"/>
</clipPath>
</defs>
</svg>
